<svg width="670" height="66" viewBox="0 0 670 66" fill="none" xmlns="http://www.w3.org/2000/svg">
<path d="M627.914 0H629.438V62.5H627.914V0Z" fill="#C0CDC2"/>
<path d="M630.962 0H632.487V62.5H630.962V0Z" fill="#C0CDC2"/>
<path d="M634.011 0H635.536V62.5H634.011V0Z" fill="#C0CDC2"/>
<path d="M637.06 0H638.584V62.5H637.06V0Z" fill="#C0CDC2"/>
<path d="M640.109 0H641.633V62.5H640.109V0Z" fill="#C0CDC2"/>
<path d="M643.158 0H644.682V62.5H643.158V0Z" fill="#C0CDC2"/>
<path d="M646.206 0H647.731V62.5H646.206V0Z" fill="#C0CDC2"/>
<path d="M649.255 0H650.78V62.5H649.255V0Z" fill="#C0CDC2"/>
<path d="M652.304 0H653.828V62.5H652.304V0Z" fill="#C0CDC2"/>
<path d="M655.353 0H656.877V62.5H655.353V0Z" fill="#C0CDC2"/>
<path d="M658.402 0H659.926V62.5H658.402V0Z" fill="#C0CDC2"/>
<path d="M661.45 0H662.975V62.5H661.45V0Z" fill="#C0CDC2"/>
<path d="M664.499 0H666.023V62.5H664.499V0Z" fill="#C0CDC2"/>
<path d="M667.548 0H669.072V62.5H667.548V0Z" fill="#C0CDC2"/>
<path d="M670.597 0H672.121V62.5H670.597V0Z" fill="#C0CDC2"/>
<path d="M673.645 0H675.17V62.5H673.645V0Z" fill="#C0CDC2"/>
<path d="M676.694 0H678.219V62.5H676.694V0Z" fill="#C0CDC2"/>
<path d="M679.743 0H681.267V62.5H679.743V0Z" fill="#C0CDC2"/>
<path d="M682.792 0H684.316V62.5H682.792V0Z" fill="#C0CDC2"/>
<path d="M685.841 0H687.365V62.5H685.841V0Z" fill="#C0CDC2"/>
<path d="M688.889 0H690.414V62.5H688.889V0Z" fill="#C0CDC2"/>
<path d="M642.757 15.625H674.007V46.875H642.757V15.625Z" fill="#C0CDC2"/>
<path d="M626.389 21.5816C627.379 24.626 627.914 27.8756 627.914 31.25C627.914 34.6244 627.379 37.874 626.389 40.9184V21.5816Z" fill="#C0CDC2"/>
<path d="M623.341 47.5346C623.894 46.6291 624.404 45.6931 624.865 44.7299V17.7701C624.404 16.8069 623.894 15.8709 623.341 14.9654V47.5346Z" fill="#C0CDC2"/>
<path d="M620.292 51.7026C620.824 51.0884 621.332 50.4532 621.816 49.7984V12.7016C621.332 12.0468 620.824 11.4116 620.292 10.7974V51.7026Z" fill="#C0CDC2"/>
<path d="M617.243 54.7677C617.767 54.3089 618.275 53.8329 618.767 53.3405V9.15949C618.275 8.66712 617.767 8.19109 617.243 7.73229V54.7677Z" fill="#C0CDC2"/>
<path d="M614.194 57.1235C614.714 56.7708 615.222 56.4029 615.719 56.0204V6.47964C615.222 6.09712 614.714 5.72919 614.194 5.3765V57.1235Z" fill="#C0CDC2"/>
<path d="M611.145 58.9491C611.662 58.6784 612.171 58.3936 612.67 58.0952V4.40476C612.171 4.10643 611.662 3.82164 611.145 3.55088V58.9491Z" fill="#C0CDC2"/>
<path d="M608.097 60.3425C608.612 60.14 609.12 59.9242 609.621 59.6955V2.80449C609.12 2.57583 608.612 2.36003 608.097 2.1575V60.3425Z" fill="#C0CDC2"/>
<path d="M605.048 61.3625C605.561 61.2198 606.07 61.0644 606.572 60.8965V1.60352C606.07 1.43563 605.561 1.28016 605.048 1.13747V61.3625Z" fill="#C0CDC2"/>
<path d="M601.999 62.0463C602.512 61.9582 603.02 61.8575 603.523 61.7447V0.75527C603.02 0.642467 602.512 0.541821 601.999 0.453657V62.0463Z" fill="#C0CDC2"/>
<path d="M598.95 62.4176C599.462 62.3806 599.97 62.3313 600.475 62.27V0.23004C599.97 0.168699 599.462 0.119381 598.95 0.082381V62.4176Z" fill="#C0CDC2"/>
<path d="M595.902 62.4909C596.155 62.497 596.409 62.5 596.664 62.5C596.918 62.5 597.173 62.497 597.426 62.4909V0.00911312C597.173 0.00304921 596.918 0 596.664 0C596.409 0 596.155 0.00304921 595.902 0.00911312V62.4909Z" fill="#C0CDC2"/>
<path d="M592.853 62.27C593.357 62.3313 593.865 62.3806 594.377 62.4176V0.0823808C593.865 0.119381 593.357 0.168699 592.853 0.23004V62.27Z" fill="#C0CDC2"/>
<path d="M589.804 61.7447C590.308 61.8575 590.816 61.9582 591.328 62.0463V0.453657C590.816 0.541821 590.308 0.642467 589.804 0.75527V61.7447Z" fill="#C0CDC2"/>
<path d="M586.755 60.8965C587.258 61.0644 587.766 61.2198 588.28 61.3625V1.13747C587.766 1.28016 587.258 1.43563 586.755 1.60352V60.8965Z" fill="#C0CDC2"/>
<path d="M583.706 59.6955C584.208 59.9242 584.716 60.14 585.231 60.3425V2.1575C584.716 2.36003 584.208 2.57583 583.706 2.80449V59.6955Z" fill="#C0CDC2"/>
<path d="M580.658 58.0952C581.157 58.3936 581.665 58.6784 582.182 58.9491V3.55088C581.665 3.82164 581.157 4.10643 580.658 4.40476V58.0952Z" fill="#C0CDC2"/>
<path d="M577.609 56.0204C578.105 56.4029 578.614 56.7708 579.133 57.1235V5.3765C578.614 5.72919 578.105 6.09712 577.609 6.47964V56.0204Z" fill="#C0CDC2"/>
<path d="M574.56 53.3405C575.052 53.8329 575.561 54.3089 576.084 54.7677V7.73229C575.561 8.19109 575.052 8.66712 574.56 9.15948V53.3405Z" fill="#C0CDC2"/>
<path d="M571.511 49.7984C571.995 50.4532 572.503 51.0884 573.036 51.7026V10.7974C572.503 11.4116 571.995 12.0468 571.511 12.7016V49.7984Z" fill="#C0CDC2"/>
<path d="M568.462 44.7299C568.924 45.6931 569.433 46.6291 569.987 47.5346V14.9654C569.433 15.8709 568.924 16.8069 568.462 17.7701V44.7299Z" fill="#C0CDC2"/>
<path d="M565.414 31.25C565.414 34.6244 565.949 37.874 566.938 40.9184V21.5816C565.949 24.626 565.414 27.8756 565.414 31.25Z" fill="#C0CDC2"/>
<path d="M581.039 31.25C581.039 39.8794 588.034 46.875 596.664 46.875C605.293 46.875 612.289 39.8794 612.289 31.25C612.289 22.6205 605.293 15.625 596.664 15.625C588.034 15.625 581.039 22.6205 581.039 31.25Z" fill="#C0CDC2"/>
<path d="M470.664 34.4267C471.837 37.3955 471.819 46.1834 471.819 46.1834C471.543 50.478 472.062 61.9188 472.062 61.9188C472.329 64.5568 474.574 63.6092 474.574 63.6092C475.319 63.0562 474.671 62.0861 474.671 62.0861C474.212 60.2834 476.046 53.7327 476.046 53.7327C476.568 51.2933 476.698 34.815 476.698 34.815C476.887 29.313 478.287 27.9298 478.287 27.9298C479.704 27.966 480.723 26.559 480.723 26.559C482.356 27.4816 485.008 26.1245 485.008 26.1245C487.411 26.1145 490.358 23.5752 490.358 23.5752C491.047 27.2768 492.971 27.0771 492.971 27.0771C493.966 31.1295 491.593 41.7239 491.593 41.7239C491.538 44.2857 485.78 50.6303 485.78 50.6303C483.166 53.0823 484.96 56.5817 484.96 56.5817C486.91 59.382 485.714 60.9975 485.714 60.9975C483.037 63.5543 483.79 64.5855 483.79 64.5855C487.62 67.8353 493.507 63.7353 493.507 63.7353C494.524 62.3271 491.64 59.6317 491.64 59.6317C489.82 57.3857 491.038 54.5705 491.038 54.5705C491.507 53.2359 496.111 49.5479 496.111 49.5479C496.006 51.1784 497.356 60.1623 497.356 60.1623C497.479 62.2097 495.175 64.0974 495.175 64.0974C493.329 65.0699 494.137 65.5231 494.137 65.5231C497.228 67.2497 502.689 66.0724 502.689 66.0724C504.909 65.4869 503.283 62.4719 503.283 62.4719C502.919 61.357 503.185 59.4806 503.185 59.4806C504.227 56.8551 503.709 45.1222 503.709 45.1222C506.316 43.6515 507.094 37.1721 507.094 37.1721C511.974 41.634 520.865 42.5691 520.865 42.5691C526.757 44.1471 533.38 42.8475 534.466 42.614C539.159 50.2883 533.461 62.2821 533.461 62.2821C530.774 64.1835 530.984 65.9988 530.984 65.9988C532.284 67.8852 539.193 66.5269 539.193 66.5269C540.277 66.3958 540.885 65.9276 541.209 65.3434C544.163 66.1087 549.108 65.0912 549.108 65.0912C550.716 62.7204 549.437 55.4693 549.437 55.4693C549.493 54.6004 548.266 49.935 548.266 49.935C547.205 47.1746 547.672 42.1833 547.672 42.1833C548.038 39.8774 547.256 33.9323 547.256 33.9323C549.015 30.333 550.047 23.9235 550.047 23.9235C552.155 26.2057 555.422 29.7275 555.422 29.7275C556.135 31.0834 559.362 32.9648 559.362 32.9648C561.331 34.3093 564.43 37.9111 564.43 37.9111C565.085 38.4629 565.414 37.9024 565.414 37.9024C563.814 35.0335 557.386 29.7438 557.386 29.7438C556.701 28.4978 552.364 23.5265 552.364 23.5265C552.154 22.8223 550.683 20.2518 550.683 20.2518C546.823 4.43016 531.013 2.4676 531.013 2.4676C527.793 1.60492 520.39 4.69609 520.39 4.69609C513.305 6.20421 505.985 3.4776 505.985 3.4776C504.138 1.61241 500.156 0.192922 500.156 0.192922C498.091 -0.522441 493.191 0.981943 493.191 0.981943C490.922 0.0356168 489.604 0.1692 489.604 0.1692C485.102 0.0243795 482.283 5.37524 482.283 5.37524C481.485 5.32405 478.59 6.01195 478.59 6.01195C476.076 6.43143 474.953 10.4352 474.953 10.4352C472.122 13.4552 470.546 27.705 470.546 27.705C470.03 31.5465 470.664 34.4267 470.664 34.4267ZM543.16 59.4731C542.642 57.3695 542.585 55.1897 542.616 53.5592L543.045 54.1485C543.591 55.5655 543.33 58.0025 543.16 59.4731Z" fill="#EBEFEB"/>
<path fill-rule="evenodd" clip-rule="evenodd" d="M439.094 62.5C421.835 62.5 407.844 48.5089 407.844 31.25C407.844 13.9911 421.835 0 439.094 0C456.353 0 470.344 13.9911 470.344 31.25C470.344 48.5089 456.353 62.5 439.094 62.5ZM439.094 46.875C430.464 46.875 423.469 39.8795 423.469 31.25C423.469 22.6206 430.464 15.625 439.094 15.625C447.723 15.625 454.719 22.6206 454.719 31.25C454.719 39.8795 447.723 46.875 439.094 46.875Z" fill="#C0CDC2"/>
<path d="M453.575 25.3721C454.313 27.1866 454.719 29.1709 454.719 31.25C454.719 33.3292 454.313 35.3134 453.575 37.1279V25.3721Z" fill="#C0CDC2"/>
<path d="M450.527 41.9004C451.083 41.3036 451.593 40.6632 452.051 39.9849V22.5151C451.593 21.8368 451.083 21.1964 450.527 20.5996V41.9004Z" fill="#C0CDC2"/>
<path d="M447.478 44.4374C448.009 44.0993 448.518 43.73 449.002 43.332V19.168C448.518 18.7701 448.009 18.4007 447.478 18.0626V44.4374Z" fill="#C0CDC2"/>
<path d="M444.429 45.9404C444.951 45.7509 445.459 45.5344 445.953 45.2926V17.2074C445.459 16.9656 444.951 16.7491 444.429 16.5596V45.9404Z" fill="#C0CDC2"/>
<path d="M441.38 46.7089C441.897 46.6331 442.406 46.532 442.905 46.407V16.0931C442.406 15.968 441.897 15.8669 441.38 15.7911V46.7089Z" fill="#C0CDC2"/>
<path d="M438.331 46.8567C438.584 46.8689 438.838 46.875 439.094 46.875C439.349 46.875 439.603 46.8689 439.856 46.8567V15.6433C439.603 15.6311 439.349 15.625 439.094 15.625C438.838 15.625 438.584 15.6311 438.331 15.6433V46.8567Z" fill="#C0CDC2"/>
<path d="M435.283 46.407C435.782 46.532 436.29 46.6331 436.807 46.7089V15.7911C436.29 15.8669 435.782 15.968 435.283 16.0931V46.407Z" fill="#C0CDC2"/>
<path d="M432.234 45.2926C432.728 45.5344 433.237 45.7509 433.758 45.9404V16.5596C433.237 16.7491 432.728 16.9656 432.234 17.2074V45.2926Z" fill="#C0CDC2"/>
<path d="M429.185 43.3321C429.67 43.73 430.179 44.0993 430.709 44.4374V18.0626C430.179 18.4007 429.67 18.77 429.185 19.168V43.3321Z" fill="#C0CDC2"/>
<path d="M426.136 39.9849C426.594 40.6632 427.105 41.3036 427.661 41.9004V20.5996C427.105 21.1964 426.594 21.8368 426.136 22.5151V39.9849Z" fill="#C0CDC2"/>
<path d="M424.612 25.3721C423.875 27.1865 423.469 29.1708 423.469 31.25C423.469 33.3292 423.875 35.3135 424.612 37.1279V25.3721Z" fill="#C0CDC2"/>
<path d="M345.344 0H407.844L392.219 15.625H360.969V46.875L345.344 62.5V0Z" fill="#C0CDC2"/>
<path d="M392.219 46.875H360.969L392.219 15.625L392.219 46.875Z" fill="#C0CDC2"/>
<path fill-rule="evenodd" clip-rule="evenodd" d="M310.418 19.9294C310.179 19.9294 309.941 19.8698 309.717 19.7504L306.316 17.7813C305.629 17.3785 305.406 16.5282 305.793 15.842C306.181 15.1707 307.047 14.9469 307.718 15.3348L311.134 17.3039C312.387 18.02 311.865 19.9294 310.418 19.9294ZM261.01 73.2604H250.404C249.897 73.2604 249.434 72.9919 249.181 72.5593C244.511 64.4589 246.898 54.5535 248.375 45.946C248.852 43.1862 248.36 42.4105 247.465 41.0231C246.63 39.7104 245.6 38.0843 245.004 34.7129C244.795 33.5792 244.675 32.4753 244.616 31.4012C242.378 35.1008 241.677 40.2623 242.512 46.7814C242.617 47.6168 241.96 48.3776 241.11 48.3776C240.409 48.3776 239.812 47.8555 239.708 47.1394C238.529 37.9948 240.215 31.1476 244.705 26.7916C244.914 24.3898 245.302 22.7787 245.332 22.6594C247.748 13.0523 255.998 7.53278 269.215 6.69739C276.928 6.2051 284.118 7.41344 286.908 7.98031C288.728 3.62433 292.159 0.84963 296.589 0.163413C301.512 -0.61231 306.853 1.4165 310.373 5.33987C316.788 5.6979 321.681 7.93556 324.933 11.9634C330.542 18.9299 329.707 29.2679 328.707 34.8173C327.394 42.0674 328.26 44.8272 329.214 45.8714C329.543 46.2294 330.124 46.677 331.437 46.5576C331.467 46.5576 331.482 46.5576 331.512 46.5576C335.346 46.4234 336.882 39.6805 337.255 37.6219C337.345 37.1445 337.658 36.7567 338.105 36.5627L342.879 34.5936C343.714 34.2356 344.654 34.7577 344.818 35.6378C346.056 42.5447 345.102 48.0792 341.999 52.0921C337.792 57.4923 331.362 58.1785 328.692 58.1785C318.876 58.1785 314.505 49.3323 312.805 41.053C309.985 42.5149 307.047 42.8133 304.898 42.7387C305.212 47.0201 306.703 53.2706 308.434 58.7305C309.314 61.5201 308.21 62.4301 308.986 64.0263C310.105 66.3386 311.447 69.6503 310.149 71.7239C309.717 72.425 308.807 73.2604 306.957 73.2604H297.947C297.454 73.2604 297.007 73.0217 296.753 72.6189C294.814 69.5906 294.889 67.7557 294.963 66.1297C295.023 64.5186 295.083 63.1312 292.651 59.9985C290.697 57.4625 289.265 55.0309 288.235 52.8678C281.895 55.6425 274.004 55.911 268.335 55.2248C266.754 57.3879 265.754 58.2531 263.889 59.7002C262.935 60.4311 262.114 61.0577 261.891 61.6544C261.816 61.8632 261.562 62.4749 262.726 64.2948C263.994 66.264 264.859 69.158 263.964 71.2017C263.472 72.3057 262.502 73.0366 261.234 73.2455C261.16 73.2604 261.085 73.2604 261.01 73.2604ZM288.355 12.6048C287.579 15.6928 287.042 20.0637 288.877 23.6141C290.294 26.359 292.979 28.2386 296.873 29.1784C297.633 29.3724 298.096 30.1332 297.917 30.894C297.723 31.6399 296.962 32.1172 296.201 31.9233C284.819 29.1486 283.283 19.7057 285.968 10.6655C283.059 10.1136 276.346 9.05439 269.334 9.51684C257.341 10.2926 250.18 14.9469 248.077 23.3307C248.062 23.3904 246.794 28.6712 247.778 34.2206C248.286 37.0401 249.106 38.3529 249.852 39.5015C250.851 41.0828 251.821 42.5895 251.15 46.4234C249.762 54.4939 247.629 63.3848 251.239 70.4409H260.861C261.219 70.3663 261.309 70.2022 261.368 70.0531C261.756 69.2028 261.279 67.2635 260.354 65.8164C257.37 61.1621 259.921 59.193 262.159 57.4625C263.129 56.7166 264.248 55.8514 265.202 54.6729C268.186 50.9733 272.587 43.4547 268.678 34.4892C268.365 33.7731 268.678 32.9377 269.394 32.6244C270.11 32.3112 270.946 32.6394 271.259 33.3554C274.645 41.1126 272.676 47.8853 270.051 52.5396C273.616 52.8231 280.955 52.9723 287.116 50.2721C285.729 46.662 285.49 44.1708 285.446 43.7083L284.521 37.234C284.416 36.4583 284.953 35.7422 285.714 35.6378C286.49 35.5185 287.206 36.0555 287.325 36.8312L288.25 43.3652C288.28 43.5293 288.728 50.2871 294.889 58.2681C297.947 62.2213 297.857 64.3545 297.783 66.249C297.723 67.4872 297.678 68.5762 298.737 70.4409H306.957C307.106 70.4409 307.628 70.426 307.763 70.2321C307.822 70.1277 308.329 69.1282 306.45 65.2645C305.227 62.7583 306.42 61.729 305.734 59.5808C305.167 57.7758 303.735 53.0468 302.825 48.2284C302.198 44.9913 301.303 39.2479 303.078 36.5627C303.511 35.9063 304.391 35.7273 305.033 36.1599C305.689 36.5926 305.868 37.4727 305.435 38.1142C305.167 38.5319 305.003 39.1435 304.913 39.9043C306.539 39.9789 309.538 39.8148 312.298 38.0993C311.925 35.4588 311.865 33.4598 311.865 32.9228L311.164 29.1038C311.015 28.3281 311.522 27.5972 312.298 27.4629C313.058 27.3137 313.789 27.8209 313.939 28.5966C314.043 29.1486 314.684 32.4902 314.684 32.7736C314.684 32.9228 314.834 46.8858 321.621 52.7783C324.083 54.9116 327.051 55.7171 330.691 55.2099C330.811 55.195 336.36 54.7624 339.776 50.3318C342.118 47.3035 342.968 43.1265 342.297 37.8904L339.881 38.8899C339.015 43.037 336.867 49.1682 331.646 49.3771C329.304 49.571 327.902 48.6163 327.141 47.7809C324.411 44.8122 325.142 38.681 325.918 34.3251C326.663 30.2376 327.827 20.0488 322.725 13.7386C319.921 10.2329 315.52 8.35326 309.642 8.12949C309.239 8.11457 308.867 7.93556 308.613 7.62229C303.392 1.31208 292.89 0.58111 289.429 9.27816C288.996 10.3522 288.638 11.486 288.355 12.6048Z" fill="#EBEFEB"/>
<path d="M176.844 62.5C194.102 62.5 208.094 48.5089 208.094 31.25H176.844V62.5Z" fill="#C0CDC2"/>
<path d="M176.844 0C176.844 17.2589 190.835 31.25 208.094 31.25L208.094 1.36598e-06L176.844 0Z" fill="#C0CDC2"/>
<path d="M239.344 4.09794e-06C222.085 2.58912e-06 208.094 13.9911 208.094 31.25L239.344 31.25L239.344 4.09794e-06Z" fill="#C0CDC2"/>
<path d="M239.344 62.5C239.344 45.2411 225.353 31.25 208.094 31.25L208.094 62.5L239.344 62.5Z" fill="#C0CDC2"/>
<path d="M145.593 62.5C145.593 59.1256 146.128 55.8761 147.118 52.8316V62.5H145.593Z" fill="#C0CDC2"/>
<path d="M150.167 46.2154C149.613 47.121 149.103 48.0569 148.642 49.0202L148.642 62.5H150.167V46.2154Z" fill="#C0CDC2"/>
<path d="M153.215 42.0474C152.683 42.6617 152.175 43.2969 151.691 43.9516V62.5H153.215L153.215 42.0474Z" fill="#C0CDC2"/>
<path d="M156.264 38.9823C155.74 39.4411 155.232 39.9172 154.74 40.4095V62.5H156.264L156.264 38.9823Z" fill="#C0CDC2"/>
<path d="M159.313 36.6266C158.793 36.9792 158.285 37.3472 157.789 37.7297V62.5H159.313V36.6266Z" fill="#C0CDC2"/>
<path d="M162.362 34.8009C161.845 35.0717 161.337 35.3565 160.837 35.6548L160.837 62.5H162.362V34.8009Z" fill="#C0CDC2"/>
<path d="M165.41 33.4076C164.896 33.6101 164.387 33.8259 163.886 34.0545V62.5H165.41V33.4076Z" fill="#C0CDC2"/>
<path d="M168.459 32.3875C167.946 32.5302 167.437 32.6857 166.935 32.8536L166.935 62.5H168.459L168.459 32.3875Z" fill="#C0CDC2"/>
<path d="M171.508 31.7037C170.996 31.7919 170.487 31.8925 169.984 32.0053L169.984 62.5H171.508L171.508 31.7037Z" fill="#C0CDC2"/>
<path d="M174.557 31.3324C174.045 31.3694 173.537 31.4188 173.032 31.4801L173.032 62.5H174.557L174.557 31.3324Z" fill="#C0CDC2"/>
<path d="M176.843 31.2592C176.337 31.247 176.588 31.247 176.081 31.2592L176.081 62.5H176.843L176.843 31.2592Z" fill="#C0CDC2"/>
<path fill-rule="evenodd" clip-rule="evenodd" d="M114.343 62.4999C114.343 27.9822 142.326 0 176.843 0V15.625C150.955 15.625 129.968 36.6116 129.968 62.4999L114.343 62.4999Z" fill="#C0CDC2"/>
<path fill-rule="evenodd" clip-rule="evenodd" d="M1.99331 51.1216C1.20543 51.1216 0.51403 50.5267 0.417556 49.7227C-0.965246 39.0944 1.09288 31.2317 6.51153 26.3437C7.17078 25.7488 8.16768 25.797 8.76261 26.4563C9.34145 27.1155 9.29322 28.1124 8.63397 28.7073C4.05143 32.8557 2.33097 39.7858 3.56906 49.3207C3.68161 50.189 3.07061 50.993 2.20234 51.1055C2.12194 51.1055 2.05762 51.1216 1.99331 51.1216Z" fill="#EBEFEB"/>
<path fill-rule="evenodd" clip-rule="evenodd" d="M7.12259 40.1717C7.49241 41.0239 7.94262 41.7636 8.44108 42.5514C8.53755 42.6962 8.61795 42.8569 8.71442 43.0017C9.22895 43.8217 9.63093 44.5935 9.85604 45.5582C10.1615 46.925 10.0329 48.4364 9.79172 49.8031C9.64701 50.7196 9.47014 51.62 9.30935 52.5366C9.14856 53.4209 9.00384 54.2892 8.84305 55.1735C7.79791 61.2032 6.86533 67.8921 8.58579 73.8735C8.93953 75.0794 9.40582 76.2532 9.96859 77.3627L10.1937 77.7968H21.6099L21.6903 77.7647C22.2209 77.6521 22.5907 77.3788 22.8158 76.8964C23.3946 75.5618 22.6711 73.3911 22.0601 72.1852C21.9154 71.9119 21.7706 71.6385 21.5938 71.3652C20.5165 69.6929 19.6 67.6027 20.6933 65.7053C21.1436 64.9496 21.8189 64.3064 22.4942 63.7598C22.7997 63.5025 23.1374 63.2452 23.459 63.004C24.7614 61.9911 25.9673 61.0102 27.0124 59.7239C29.2474 56.9422 31.0483 53.7264 32.0291 50.3016C33.3958 45.51 33.026 40.7184 31.0322 36.168C30.8553 35.7661 31.0483 35.2837 31.4503 35.1068C31.8522 34.93 32.3346 35.1068 32.5115 35.5249C35.6147 42.6158 34.9394 49.787 31.1769 56.4438L30.582 57.5211L31.804 57.6175C38.1874 58.116 45.5195 57.5854 51.4205 54.9806L52.0958 54.6912L51.8386 53.9837C51.2275 52.3918 50.713 50.7518 50.3754 49.0796C50.2628 48.5811 50.1824 48.0666 50.102 47.5681C50.0699 47.2948 50.0377 47.0214 50.0055 46.7642L48.9604 39.4643C48.8961 39.014 49.2016 38.6121 49.6518 38.5477C50.0859 38.4834 50.4879 38.7889 50.5522 39.2391L51.6134 46.5873C51.6134 46.6195 51.6134 46.6355 51.6134 46.6677C51.6456 47.134 51.7421 47.6646 51.8225 48.1309C52.0637 49.4011 52.4013 50.6553 52.8033 51.8612C54.2183 56.1544 56.5015 60.2063 59.251 63.7758C60.4087 65.2712 61.5503 67.0238 62.0649 68.8729C62.3864 70.0467 62.3864 71.0436 62.3382 72.2495C62.3382 72.4907 62.3221 72.7158 62.3221 72.957C62.29 74.6614 62.6919 75.9156 63.5281 77.3948L63.7532 77.7968H73.4649C74.0277 77.7968 74.7191 77.7003 75.0407 77.1858C75.925 75.7708 74.2046 72.0566 73.6096 70.8346C72.9986 69.5804 72.9665 68.7121 73.079 67.3776C73.1755 66.3163 73.1755 65.5606 72.8378 64.5316C72.3072 62.8433 71.8088 61.1389 71.3586 59.4345C70.6672 56.9262 70.0562 54.3857 69.5738 51.8291C69.0914 49.2725 68.8181 46.7159 68.7216 44.1111C68.7055 44.0468 68.7055 43.9825 68.7216 43.9021C68.802 42.5032 68.9628 40.4451 69.7507 39.2552C70.0079 38.8854 70.5064 38.7729 70.8762 39.0301C71.246 39.2713 71.3425 39.7698 71.1013 40.1396C70.6672 40.8149 70.4742 41.7153 70.3938 42.5032L70.2974 43.3393L71.1335 43.3715C74.1724 43.5001 77.3078 42.8248 79.8966 41.2008L80.3307 40.9435L80.2664 40.429C80.0895 39.1909 79.977 37.9528 79.9127 36.6987C79.8966 36.2645 79.8644 35.8465 79.8483 35.4123C79.8323 35.139 79.8162 34.8335 79.7679 34.5762L78.9801 30.267C78.8997 29.8329 79.1891 29.4148 79.6232 29.3344C80.0734 29.238 80.4915 29.5274 80.5719 29.9776L81.3919 34.4154C81.3919 34.4637 81.3919 34.5119 81.3919 34.5601C81.408 35.0586 81.4241 35.5731 81.4562 36.0716C81.5366 37.3097 81.6492 38.5477 81.81 39.7698C82.2763 43.3232 83.1124 46.9893 84.4791 50.3016C85.6207 53.0511 87.2126 55.7202 89.4797 57.6979C92.5991 60.3992 96.2812 61.171 100.333 60.6243L100.397 60.6083C100.767 60.5922 101.185 60.5118 101.555 60.4314C102.472 60.2545 103.388 59.9973 104.256 59.6757C106.942 58.6949 109.337 57.0869 111.09 54.8198C114.306 50.6714 114.724 45.2366 114.097 40.2039L113.968 39.1909L109.9 40.8631L109.82 41.2812C108.903 45.7029 106.62 52.1346 101.25 52.4722C99.6095 52.5848 97.9373 52.1828 96.7957 50.9286C93.8371 47.6968 94.8984 40.4129 95.6219 36.4253C96.9886 28.8199 96.9243 18.883 91.8594 12.5961C88.0808 7.901 82.3567 6.21269 76.536 5.98759C76.2949 5.98759 76.0858 5.87503 75.9411 5.69816C74.2689 3.6722 72.0821 2.06429 69.6381 1.08346C67.2745 0.134796 64.6697 -0.235023 62.1453 0.150875C57.7717 0.842276 54.6042 3.70435 52.9802 7.77236C52.8515 8.07787 52.739 8.36729 52.6425 8.67279L52.6103 8.75319C51.7742 10.956 51.2115 13.384 50.9864 15.7315C50.713 18.7222 51.0024 21.8737 52.4013 24.5911C54.3147 28.3214 57.9647 30.2992 61.9201 31.2639C62.3543 31.3604 62.6115 31.8106 62.5151 32.2447C62.4025 32.6628 61.9684 32.9361 61.5342 32.8236C57.0803 31.7463 53.1249 29.5113 50.9542 25.3307C49.6518 22.7902 49.2337 19.9442 49.3141 17.1143C49.3945 14.6703 49.8608 12.1941 50.5522 9.86265L50.8095 9.02653L49.9573 8.86574C47.4007 8.38337 44.8281 8.01355 42.2393 7.77236C38.5251 7.41862 34.7465 7.30607 31.0161 7.54726C20.0663 8.25474 9.24503 12.0494 6.33471 23.7228C6.25432 24.0766 6.17392 24.4625 6.10961 24.8323C5.9649 25.6362 5.85234 26.4402 5.77195 27.2441C5.85234 27.3085 5.94882 27.3889 6.01313 27.4693C6.60806 28.1285 6.55982 29.1254 5.90058 29.7203C5.78803 29.8168 5.67547 29.9294 5.579 30.0258C5.4986 32.1322 5.62723 34.2546 5.99705 36.3128C6.22216 37.6312 6.5759 38.9497 7.12259 40.1717ZM77.3722 19.285C77.6616 19.285 77.9349 19.1403 78.0796 18.883C78.3047 18.4971 78.1761 17.9987 77.7902 17.7896L73.9473 15.5707C73.5614 15.3456 73.063 15.4742 72.8378 15.8601C72.6127 16.246 72.7414 16.7445 73.1273 16.9535L76.9702 19.1724C77.0988 19.2528 77.2435 19.285 77.3722 19.285Z" fill="#EBEFEB"/>
</svg>
