<svg width="765" height="66" viewBox="0 0 765 66" fill="none" xmlns="http://www.w3.org/2000/svg">
<path d="M4.5 31.25C4.5 48.5089 -9.4911 62.5 -26.75 62.5C-44.0089 62.5 -58 48.5089 -58 31.25C-58 13.9911 -44.0089 0 -26.75 0C-9.4911 0 4.5 13.9911 4.5 31.25Z" fill="#C0CDC2"/>
<path d="M-0.179852 34.4267C0.993692 37.3955 0.974965 46.1834 0.974965 46.1834C0.699058 50.478 1.21841 61.9188 1.21841 61.9188C1.48558 64.5568 3.7303 63.6092 3.7303 63.6092C4.47562 63.0562 3.82768 62.0861 3.82768 62.0861C3.36825 60.2834 5.20222 53.7327 5.20222 53.7327C5.72407 51.2933 5.85391 34.815 5.85391 34.815C6.04368 29.313 7.44319 27.9298 7.44319 27.9298C8.86018 27.966 9.87892 26.559 9.87892 26.559C11.5119 27.4816 14.1649 26.1245 14.1649 26.1245C16.5669 26.1145 19.5145 23.5752 19.5145 23.5752C20.2036 27.2768 22.1275 27.0771 22.1275 27.0771C23.1225 31.1295 20.7492 41.7239 20.7492 41.7239C20.6943 44.2857 14.9364 50.6303 14.9364 50.6303C12.3221 53.0823 14.1162 56.5817 14.1162 56.5817C16.0662 59.382 14.8702 60.9975 14.8702 60.9975C12.1935 63.5543 12.9464 64.5855 12.9464 64.5855C16.7766 67.8353 22.6631 63.7353 22.6631 63.7353C23.6805 62.3271 20.7966 59.6317 20.7966 59.6317C18.9764 57.3857 20.1949 54.5705 20.1949 54.5705C20.663 53.2359 25.2673 49.5479 25.2673 49.5479C25.1625 51.1784 26.512 60.1623 26.512 60.1623C26.6356 62.2097 24.331 64.0974 24.331 64.0974C22.4858 65.0699 23.2935 65.5231 23.2935 65.5231C26.3847 67.2497 31.8454 66.0724 31.8454 66.0724C34.0652 65.4869 32.4397 62.4719 32.4397 62.4719C32.0751 61.357 32.3411 59.4806 32.3411 59.4806C33.3835 56.8551 32.8654 45.1222 32.8654 45.1222C35.4722 43.6515 36.25 37.1721 36.25 37.1721C41.1301 41.634 50.0216 42.5691 50.0216 42.5691C55.9131 44.1471 62.5361 42.8475 63.6222 42.614C68.3152 50.2883 62.6172 62.2821 62.6172 62.2821C59.9306 64.1835 60.1403 65.9988 60.1403 65.9988C61.44 67.8852 68.3489 66.5269 68.3489 66.5269C69.4338 66.3958 70.0418 65.9276 70.3651 65.3434C73.319 66.1087 78.2641 65.0912 78.2641 65.0912C79.8721 62.7204 78.5937 55.4693 78.5937 55.4693C78.6499 54.6004 77.4226 49.935 77.4226 49.935C76.3614 47.1746 76.8284 42.1833 76.8284 42.1833C77.1942 39.8774 76.4126 33.9323 76.4126 33.9323C78.1717 30.333 79.2029 23.9235 79.2029 23.9235C81.3116 26.2057 84.5788 29.7275 84.5788 29.7275C85.2916 31.0834 88.5189 32.9648 88.5189 32.9648C90.4877 34.3093 93.5863 37.9111 93.5863 37.9111C94.2418 38.4629 94.5701 37.9024 94.5701 37.9024C92.9708 35.0335 86.5426 29.7438 86.5426 29.7438C85.8572 28.4978 81.5201 23.5265 81.5201 23.5265C81.3103 22.8223 79.8396 20.2518 79.8396 20.2518C75.9794 4.43016 60.169 2.4676 60.169 2.4676C56.9493 1.60492 49.546 4.69609 49.546 4.69609C42.461 6.20421 35.1413 3.4776 35.1413 3.4776C33.2949 1.61241 29.3123 0.192922 29.3123 0.192922C27.2474 -0.522441 22.3472 0.981943 22.3472 0.981943C20.0788 0.0356168 18.7604 0.1692 18.7604 0.1692C14.2585 0.0243795 11.4395 5.37524 11.4395 5.37524C10.6417 5.32405 7.74657 6.01195 7.74657 6.01195C5.23218 6.43143 4.10983 10.4352 4.10983 10.4352C1.27834 13.4552 -0.297206 27.705 -0.297206 27.705C-0.814065 31.5465 -0.179852 34.4267 -0.179852 34.4267ZM72.3165 59.4731C71.7984 57.3695 71.7409 55.1897 71.7721 53.5592L72.2016 54.1485C72.7472 55.5655 72.4863 58.0025 72.3165 59.4731Z" fill="#EBEFEB"/>
<path d="M152.07 31.25C152.07 48.5089 138.079 62.5 120.82 62.5C103.561 62.5 89.5701 48.5089 89.5701 31.25C89.5701 13.9911 103.561 0 120.82 0C138.079 0 152.07 13.9911 152.07 31.25Z" fill="#C0CDC2"/>
<path fill-rule="evenodd" clip-rule="evenodd" d="M149.063 51.1216C148.275 51.1216 147.584 50.5267 147.488 49.7227C146.105 39.0944 148.163 31.2317 153.581 26.3437C154.241 25.7488 155.238 25.797 155.833 26.4563C156.411 27.1155 156.363 28.1124 155.704 28.7073C151.121 32.8557 149.401 39.7858 150.639 49.3207C150.752 50.189 150.141 50.993 149.272 51.1055C149.192 51.1055 149.128 51.1216 149.063 51.1216Z" fill="#EBEFEB"/>
<path fill-rule="evenodd" clip-rule="evenodd" d="M154.193 40.1717C154.562 41.0239 155.013 41.7636 155.511 42.5514C155.607 42.6962 155.688 42.8569 155.784 43.0017C156.299 43.8217 156.701 44.5935 156.926 45.5582C157.231 46.925 157.103 48.4364 156.862 49.8031C156.717 50.7196 156.54 51.62 156.379 52.5366C156.219 53.4209 156.074 54.2892 155.913 55.1735C154.868 61.2032 153.935 67.8921 155.656 73.8735C156.009 75.0794 156.476 76.2532 157.039 77.3627L157.264 77.7968H168.68L168.76 77.7647C169.291 77.6521 169.661 77.3788 169.886 76.8964C170.465 75.5618 169.741 73.3911 169.13 72.1852C168.985 71.9119 168.841 71.6385 168.664 71.3652C167.586 69.6929 166.67 67.6027 167.763 65.7053C168.214 64.9496 168.889 64.3064 169.564 63.7598C169.87 63.5025 170.207 63.2452 170.529 63.004C171.831 61.9911 173.037 61.0102 174.082 59.7239C176.317 56.9422 178.118 53.7264 179.099 50.3016C180.466 45.51 180.096 40.7184 178.102 36.168C177.925 35.7661 178.118 35.2837 178.52 35.1068C178.922 34.93 179.405 35.1068 179.581 35.5249C182.685 42.6158 182.009 49.787 178.247 56.4438L177.652 57.5211L178.874 57.6175C185.257 58.116 192.589 57.5854 198.49 54.9806L199.166 54.6912L198.909 53.9837C198.297 52.3918 197.783 50.7518 197.445 49.0796C197.333 48.5811 197.252 48.0666 197.172 47.5681C197.14 47.2948 197.108 47.0214 197.075 46.7642L196.03 39.4643C195.966 39.014 196.272 38.6121 196.722 38.5477C197.156 38.4834 197.558 38.7889 197.622 39.2391L198.683 46.5873C198.683 46.6195 198.683 46.6355 198.683 46.6677C198.716 47.134 198.812 47.6646 198.892 48.1309C199.134 49.4011 199.471 50.6553 199.873 51.8612C201.288 56.1544 203.571 60.2063 206.321 63.7758C207.479 65.2712 208.62 67.0238 209.135 68.8729C209.456 70.0467 209.456 71.0436 209.408 72.2495C209.408 72.4907 209.392 72.7158 209.392 72.957C209.36 74.6614 209.762 75.9156 210.598 77.3948L210.823 77.7968H220.535C221.098 77.7968 221.789 77.7003 222.111 77.1858C222.995 75.7708 221.275 72.0566 220.68 70.8346C220.069 69.5804 220.036 68.7121 220.149 67.3776C220.245 66.3163 220.245 65.5606 219.908 64.5316C219.377 62.8433 218.879 61.1389 218.429 59.4345C217.737 56.9262 217.126 54.3857 216.644 51.8291C216.161 49.2725 215.888 46.7159 215.792 44.1111C215.775 44.0468 215.775 43.9825 215.792 43.9021C215.872 42.5032 216.033 40.4451 216.821 39.2552C217.078 38.8854 217.576 38.7729 217.946 39.0301C218.316 39.2713 218.412 39.7698 218.171 40.1396C217.737 40.8149 217.544 41.7153 217.464 42.5032L217.367 43.3393L218.203 43.3715C221.242 43.5001 224.378 42.8248 226.967 41.2008L227.401 40.9435L227.336 40.429C227.159 39.1909 227.047 37.9528 226.983 36.6987C226.967 36.2645 226.934 35.8465 226.918 35.4123C226.902 35.139 226.886 34.8335 226.838 34.5762L226.05 30.267C225.97 29.8329 226.259 29.4148 226.693 29.3344C227.143 29.238 227.561 29.5274 227.642 29.9776L228.462 34.4154C228.462 34.4637 228.462 34.5119 228.462 34.5601C228.478 35.0586 228.494 35.5731 228.526 36.0716C228.607 37.3097 228.719 38.5477 228.88 39.7698C229.346 43.3232 230.182 46.9893 231.549 50.3016C232.691 53.0511 234.283 55.7202 236.55 57.6979C239.669 60.3992 243.351 61.171 247.403 60.6243L247.467 60.6083C247.837 60.5922 248.255 60.5118 248.625 60.4314C249.542 60.2545 250.458 59.9973 251.326 59.6757C254.012 58.6949 256.407 57.0869 258.16 54.8198C261.376 50.6714 261.794 45.2366 261.167 40.2039L261.038 39.1909L256.97 40.8631L256.89 41.2812C255.973 45.7029 253.69 52.1346 248.32 52.4722C246.679 52.5848 245.007 52.1828 243.866 50.9286C240.907 47.6968 241.968 40.4129 242.692 36.4253C244.059 28.8199 243.994 18.883 238.929 12.5961C235.151 7.901 229.427 6.21269 223.606 5.98759C223.365 5.98759 223.156 5.87503 223.011 5.69816C221.339 3.6722 219.152 2.06429 216.708 1.08346C214.344 0.134796 211.74 -0.235023 209.215 0.150875C204.842 0.842276 201.674 3.70435 200.05 7.77236C199.921 8.07787 199.809 8.36729 199.712 8.67279L199.68 8.75319C198.844 10.956 198.281 13.384 198.056 15.7315C197.783 18.7222 198.072 21.8737 199.471 24.5911C201.385 28.3214 205.035 30.2992 208.99 31.2639C209.424 31.3604 209.681 31.8106 209.585 32.2447C209.472 32.6628 209.038 32.9361 208.604 32.8236C204.15 31.7463 200.195 29.5113 198.024 25.3307C196.722 22.7902 196.304 19.9442 196.384 17.1143C196.464 14.6703 196.931 12.1941 197.622 9.86265L197.879 9.02653L197.027 8.86574C194.471 8.38337 191.898 8.01355 189.309 7.77236C185.595 7.41862 181.816 7.30607 178.086 7.54726C167.136 8.25474 156.315 12.0494 153.405 23.7228C153.324 24.0766 153.244 24.4625 153.18 24.8323C153.035 25.6362 152.922 26.4402 152.842 27.2441C152.922 27.3085 153.019 27.3889 153.083 27.4693C153.678 28.1285 153.63 29.1254 152.971 29.7203C152.858 29.8168 152.745 29.9294 152.649 30.0258C152.569 32.1322 152.697 34.2546 153.067 36.3128C153.292 37.6312 153.646 38.9497 154.193 40.1717ZM224.442 19.285C224.732 19.285 225.005 19.1403 225.15 18.883C225.375 18.4971 225.246 17.9987 224.86 17.7896L221.017 15.5707C220.631 15.3456 220.133 15.4742 219.908 15.8601C219.683 16.246 219.811 16.7445 220.197 16.9535L224.04 19.1724C224.169 19.2528 224.313 19.285 224.442 19.285Z" fill="#EBEFEB"/>
<path fill-rule="evenodd" clip-rule="evenodd" d="M257.938 21.5816C256.948 24.626 256.414 27.8756 256.414 31.25C256.414 34.6244 256.948 37.874 257.938 40.9184V21.5816ZM260.987 47.5346C260.433 46.6291 259.924 45.6931 259.462 44.7299V17.7701C259.924 16.8069 260.433 15.8709 260.987 14.9654V47.5346ZM264.036 51.7026C263.503 51.0884 262.995 50.4532 262.511 49.7984V12.7016C262.995 12.0468 263.503 11.4116 264.036 10.7974V51.7026ZM267.084 54.7677C266.56 54.3089 266.052 53.8329 265.56 53.3405V9.15949C266.052 8.66712 266.56 8.19109 267.084 7.73229V54.7677ZM270.133 57.1235C269.614 56.7708 269.105 56.4029 268.609 56.0204V6.47964C269.105 6.09712 269.614 5.72919 270.133 5.3765V57.1235ZM273.182 58.9491C272.665 58.6784 272.157 58.3936 271.657 58.0953V4.40476C272.157 4.10643 272.665 3.82164 273.182 3.55088V58.9491ZM276.231 60.3425C275.716 60.14 275.207 59.9242 274.706 59.6955V2.80449C275.207 2.57583 275.716 2.36003 276.231 2.1575V60.3425ZM279.279 61.3625C278.766 61.2199 278.258 61.0644 277.755 60.8965V1.60352C278.258 1.43563 278.766 1.28016 279.279 1.13747V61.3625ZM282.328 62.0464C281.816 61.9582 281.307 61.8576 280.804 61.7447V0.755271C281.307 0.642467 281.816 0.541821 282.328 0.453657V62.0464ZM285.377 62.4176C284.865 62.3806 284.357 62.3313 283.853 62.27V0.23004C284.357 0.168699 284.865 0.119381 285.377 0.082381V62.4176ZM288.426 62.4909C288.172 62.497 287.918 62.5 287.664 62.5C287.409 62.5 287.155 62.497 286.901 62.4909V0.00911312C287.155 0.00304921 287.409 0 287.664 0C287.918 0 288.172 0.00304921 288.426 0.00911312V62.4909ZM291.475 62.27C290.97 62.3313 290.462 62.3806 289.95 62.4176V0.0823808C290.462 0.119381 290.97 0.168699 291.475 0.23004V62.27ZM294.523 61.7447C294.02 61.8576 293.511 61.9582 292.999 62.0464V0.453658C293.511 0.541821 294.02 0.642467 294.523 0.755271V61.7447ZM297.572 60.8965C297.07 61.0644 296.561 61.2199 296.048 61.3625V1.13747C296.561 1.28016 297.07 1.43563 297.572 1.60352V60.8965ZM300.621 59.6955C300.12 59.9242 299.611 60.14 299.097 60.3425V2.1575C299.611 2.36003 300.12 2.57583 300.621 2.80449V59.6955ZM303.67 58.0953C303.17 58.3936 302.662 58.6784 302.145 58.9491V3.55088C302.662 3.82164 303.17 4.10643 303.67 4.40476V58.0953ZM306.718 56.0204C306.222 56.4029 305.714 56.7708 305.194 57.1235V5.3765C305.714 5.72919 306.222 6.09712 306.718 6.47964V56.0204ZM309.767 53.3405C309.275 53.8329 308.767 54.3089 308.243 54.7677V7.73229C308.767 8.19109 309.275 8.66712 309.767 9.15949V53.3405ZM312.816 49.7984C312.332 50.4532 311.824 51.0884 311.292 51.7026V10.7974C311.824 11.4116 312.332 12.0468 312.816 12.7016V49.7984ZM315.865 44.7299C315.404 45.6931 314.894 46.6291 314.34 47.5347V14.9654C314.894 15.8709 315.404 16.8069 315.865 17.7701V44.7299ZM318.914 31.25C318.914 34.6244 318.379 37.874 317.389 40.9184V21.5816C318.379 24.626 318.914 27.8756 318.914 31.25Z" fill="#E1E7E2"/>
<path d="M318.914 31.25C318.914 48.5089 304.922 62.5 287.664 62.5V0C304.922 0 318.914 13.9911 318.914 31.25Z" fill="#E1E7E2"/>
<path fill-rule="evenodd" clip-rule="evenodd" d="M345.164 62.5C362.422 62.5 376.414 48.5089 376.414 31.25C376.414 13.9911 362.422 0 345.164 0C327.905 0 313.914 13.9911 313.914 31.25C313.914 48.5089 327.905 62.5 345.164 62.5ZM345.164 46.875C353.793 46.875 360.789 39.8795 360.789 31.25C360.789 22.6206 353.793 15.625 345.164 15.625C336.534 15.625 329.539 22.6206 329.539 31.25C329.539 39.8795 336.534 46.875 345.164 46.875Z" fill="#C0CDC2"/>
<path d="M330.682 25.3721C329.945 27.1866 329.539 29.1709 329.539 31.25C329.539 33.3292 329.945 35.3134 330.682 37.1279V25.3721Z" fill="#C0CDC2"/>
<path d="M333.731 41.9004C333.174 41.3036 332.664 40.6632 332.206 39.9849V22.5151C332.664 21.8368 333.174 21.1964 333.731 20.5996V41.9004Z" fill="#C0CDC2"/>
<path d="M336.779 44.4374C336.249 44.0993 335.74 43.73 335.255 43.332V19.168C335.74 18.7701 336.249 18.4007 336.779 18.0626V44.4374Z" fill="#C0CDC2"/>
<path d="M339.828 45.9404C339.307 45.7509 338.798 45.5344 338.304 45.2926V17.2074C338.798 16.9656 339.307 16.7491 339.828 16.5596V45.9404Z" fill="#C0CDC2"/>
<path d="M342.877 46.7089C342.36 46.6331 341.852 46.532 341.353 46.407V16.0931C341.852 15.968 342.36 15.8669 342.877 15.7911V46.7089Z" fill="#C0CDC2"/>
<path d="M345.926 46.8567C345.673 46.8689 345.419 46.875 345.164 46.875C344.908 46.875 344.654 46.8689 344.401 46.8567V15.6433C344.654 15.6311 344.908 15.625 345.164 15.625C345.419 15.625 345.673 15.6311 345.926 15.6433V46.8567Z" fill="#C0CDC2"/>
<path d="M348.975 46.407C348.476 46.532 347.967 46.6331 347.45 46.7089V15.7911C347.967 15.8669 348.476 15.968 348.975 16.0931V46.407Z" fill="#C0CDC2"/>
<path d="M352.023 45.2926C351.529 45.5344 351.021 45.7509 350.499 45.9404V16.5596C351.021 16.7491 351.529 16.9656 352.023 17.2074V45.2926Z" fill="#C0CDC2"/>
<path d="M355.072 43.3321C354.587 43.73 354.078 44.0993 353.548 44.4374V18.0626C354.078 18.4007 354.587 18.77 355.072 19.168V43.3321Z" fill="#C0CDC2"/>
<path d="M358.121 39.9849C357.663 40.6632 357.153 41.3036 356.597 41.9004V20.5996C357.153 21.1964 357.663 21.8368 358.121 22.5151V39.9849Z" fill="#C0CDC2"/>
<path d="M359.645 25.3721C360.382 27.1865 360.789 29.1708 360.789 31.25C360.789 33.3292 360.382 35.3135 359.645 37.1279V25.3721Z" fill="#C0CDC2"/>
<path d="M394.56 21.3841C394.809 21.3845 395.053 21.3109 395.261 21.1727C395.468 21.0345 395.63 20.8378 395.725 20.6076C395.821 20.3774 395.846 20.1241 395.798 19.8795C395.749 19.635 395.63 19.4103 395.454 19.2339C395.277 19.0575 395.053 18.9374 394.808 18.8886C394.564 18.8398 394.311 18.8647 394.08 18.96C393.85 19.0553 393.653 19.2168 393.514 19.424C393.376 19.6313 393.302 19.8749 393.302 20.1242C393.302 20.458 393.434 20.7782 393.67 21.0145C393.906 21.2507 394.226 21.3836 394.56 21.3841Z" fill="#EBEFEB"/>
<path d="M374.949 6.89923H375.882V25.3113C375.882 27.7316 376.844 30.0528 378.555 31.7642C380.267 33.4757 382.588 34.4371 385.008 34.4371H389.533C388.264 35.0869 386.915 35.5676 385.521 35.8668C384.811 36.018 383.492 36.2966 383.222 37.4182C383.064 38.0933 383.357 38.7335 384.097 39.3219C384.551 39.6909 385.624 40.1096 387.233 40.1096C389.531 40.1096 392.929 39.25 397.194 36.1287C397.473 36.1472 397.748 36.1601 398.05 36.1675C398.68 36.7431 399.408 37.2005 400.199 37.5178L403.684 51.5376L402.762 64.6019H402.352C402.034 64.6019 401.729 64.7282 401.504 64.9531C401.279 65.1779 401.153 65.4829 401.153 65.8009C401.153 66.1189 401.279 66.4239 401.504 66.6488C401.729 66.8737 402.034 67 402.352 67H410.03L411.742 55.4521L414.003 64.6019H413.745C413.427 64.6019 413.122 64.7282 412.897 64.9531C412.672 65.1779 412.546 65.4829 412.546 65.8009C412.546 66.1189 412.672 66.4239 412.897 66.6488C413.122 66.8737 413.427 67 413.745 67H421.913L419.978 50.547C420.754 49.6847 421.389 48.7062 421.862 47.6471C423.624 48.1544 426.405 48.8314 431.021 48.8314C432.08 48.8318 433.137 48.7597 434.186 48.6156C434.726 49.7223 435.513 50.69 436.487 51.4435C437.077 51.8779 437.563 52.4385 437.91 53.0843C438.256 53.7302 438.455 54.4451 438.49 55.1772L435.024 64.6019H434.428C434.11 64.6019 433.805 64.7282 433.58 64.9531C433.355 65.1779 433.229 65.4829 433.229 65.8009C433.229 66.1189 433.355 66.4239 433.58 66.6488C433.805 66.8737 434.11 67 434.428 67H450.883V59.3537L452.794 47.6526V53.7402C452.795 54.8225 453.138 55.8767 453.774 56.7523C454.41 57.628 455.307 58.2802 456.336 58.6158C456.487 58.671 456.648 58.6952 456.809 58.6868C456.97 58.6784 457.128 58.6377 457.273 58.567C457.418 58.4963 457.547 58.3972 457.652 58.2754C457.758 58.1537 457.838 58.0119 457.888 57.8586C457.937 57.7052 457.956 57.5434 457.941 57.3829C457.927 57.2223 457.88 57.0663 457.804 56.9241C457.728 56.782 457.625 56.6566 457.499 56.5555C457.373 56.4544 457.229 56.3796 457.074 56.3357C456.526 56.1572 456.048 55.8101 455.709 55.344C455.37 54.8778 455.187 54.3165 455.187 53.7402V34.5293C455.193 32.3137 454.759 30.1189 453.912 28.0719C453.064 26.0248 451.819 24.1661 450.248 22.6033C447.201 19.5577 442.419 17.665 437.767 17.665H421.179C420.861 17.665 420.556 17.7913 420.331 18.0162C420.107 18.241 419.98 18.546 419.98 18.864C419.98 19.1821 420.107 19.487 420.331 19.7119C420.556 19.9368 420.861 20.0631 421.179 20.0631H437.772C441.811 20.0631 445.945 21.6865 448.557 24.3059C449.905 25.6455 450.975 27.2393 451.703 28.9952C452.432 30.751 452.804 32.634 452.8 34.5349C452.801 37.3436 452.405 40.1384 451.623 42.8361L450.575 46.413L448.485 59.16V64.6019H445.788V53.5723C445.784 52.4541 445.517 51.3524 445.008 50.3567C444.499 49.3609 443.762 48.499 442.858 47.8408C441.99 47.1714 441.289 46.3094 440.811 45.3228C440.373 44.4324 440.062 43.4848 439.888 42.5077C439.803 42.0643 439.747 41.6156 439.721 41.1648V41.1408C439.71 40.8902 439.621 40.6492 439.468 40.4509C439.283 40.2129 439.02 40.0472 438.726 39.9825C438.431 39.9178 438.123 39.9582 437.856 40.0967L437.697 40.1797C436.417 40.8549 434.277 41.9838 429.683 41.9838C428.014 41.9838 426.575 41.7108 425.286 41.1445C424.148 40.6551 423.089 40.0019 422.14 39.2057C421.923 39.0248 421.653 38.9187 421.371 38.9033C421.089 38.8879 420.809 38.964 420.574 39.1202C420.338 39.2764 420.159 39.5044 420.064 39.7704C419.968 40.0364 419.961 40.3262 420.043 40.5966C420.515 42.1028 420.563 43.7102 420.181 45.2418C419.799 46.7734 419.002 48.17 417.877 49.2778L417.464 49.6892L419.217 64.6019H416.479L413.007 50.5654C415.047 48.0855 416.279 45.0406 416.538 41.8399C416.55 41.6825 416.531 41.5242 416.482 41.3741C416.433 41.224 416.355 41.085 416.252 40.9651C416.149 40.8452 416.024 40.7467 415.883 40.6752C415.742 40.6038 415.589 40.5608 415.431 40.5486C415.274 40.5365 415.115 40.5556 414.965 40.6046C414.815 40.6537 414.676 40.7318 414.556 40.8346C414.314 41.0422 414.164 41.3375 414.14 41.6555C413.895 44.6549 412.644 47.4835 410.589 49.6818L410.087 50.2186L407.956 64.6074H405.169L406.11 51.3255L402.804 38.0251C403.978 38.0112 405.125 37.679 406.125 37.064C406.925 36.5719 407.615 35.9192 408.151 35.147C408.686 34.3748 409.056 33.4999 409.237 32.5776C409.573 30.8111 410.386 29.1703 411.589 27.833C412.315 27.0454 413.169 26.3857 414.114 25.8813C414.949 25.443 415.681 24.8312 416.26 24.0871C416.839 23.3429 417.253 22.4836 417.473 21.5665C417.787 20.2022 417.789 18.7846 417.478 17.4194C417.168 16.0543 416.554 14.7767 415.681 13.6819C414.809 12.5871 413.701 11.7032 412.439 11.0961C411.178 10.489 409.795 10.1743 408.395 10.1754H400.094H398.79C395.411 10.1798 392.171 11.5243 389.782 13.9139C387.393 16.3035 386.049 19.5432 386.045 22.9224V24.7819C386.053 25.2329 385.884 25.669 385.573 25.996C385.262 26.3229 384.835 26.5144 384.385 26.5288C384.149 26.5304 383.916 26.4819 383.701 26.3865C383.485 26.2911 383.293 26.151 383.136 25.9754C382.848 25.6504 382.692 25.2291 382.699 24.7948V6.15581C382.699 4.52446 382.051 2.95983 380.898 1.8056C379.745 0.651375 378.181 0.00195546 376.55 0H374.862C374.398 0.000409794 373.939 0.0943815 373.512 0.276297C373.085 0.458214 372.699 0.724339 372.378 1.05876C372.056 1.39318 371.805 1.78904 371.64 2.22265C371.475 2.65627 371.399 3.11875 371.416 3.58243C371.486 5.44928 373.08 6.89923 374.949 6.89923ZM443.388 64.6019H442.762L443.388 62.9601V64.6019ZM439.21 47.3538C439.797 48.2799 440.547 49.0924 441.423 49.7519C442.027 50.1884 442.52 50.7608 442.861 51.4229C443.203 52.0849 443.384 52.8181 443.39 53.5631V56.2158L440.198 64.6019H437.579L440.899 55.5941V55.3801C440.897 54.2426 440.629 53.1214 440.116 52.1059C439.604 51.0903 438.861 50.2085 437.948 49.5306C437.446 49.1455 437.018 48.6739 436.682 48.1378C437.539 47.9221 438.383 47.6603 439.211 47.3538H439.21ZM422.81 42.5852C423.3 42.8637 423.805 43.1167 424.321 43.3434C425.92 44.0425 427.673 44.382 429.68 44.382C433.563 44.382 435.978 43.6238 437.525 42.9357C437.524 42.9393 437.524 42.9431 437.525 42.9468C437.664 43.7114 437.869 44.4625 438.138 45.1918C437.109 45.5596 436.054 45.8494 434.981 46.0588C433.677 46.307 432.352 46.4305 431.025 46.4277C426.808 46.4277 424.243 45.8245 422.603 45.3578C422.791 44.4463 422.861 43.5145 422.812 42.5852H422.81ZM387.93 37.6949C389.649 37.1183 391.283 36.3162 392.791 35.3097C393.068 35.4019 393.368 35.4917 393.693 35.579C391.264 37.0142 389.319 37.5584 387.93 37.6949ZM374.862 2.39813H376.55C377.547 2.39813 378.503 2.79402 379.207 3.49873C379.912 4.20343 380.308 5.15921 380.308 6.15581V24.7708C380.297 25.8253 380.684 26.8451 381.393 27.6264C381.777 28.0433 382.244 28.3749 382.765 28.5995C383.285 28.8242 383.847 28.937 384.414 28.9306C385.497 28.9098 386.529 28.4631 387.285 27.6872C388.041 26.9114 388.461 25.8689 388.454 24.7856V22.9261C388.457 20.1825 389.549 17.5522 391.489 15.6121C393.429 13.6721 396.059 12.5807 398.803 12.5773H400.107H408.408C409.677 12.5643 410.925 12.907 412.009 13.5666C413.094 14.2261 413.972 15.1762 414.544 16.3091C415.295 17.7644 415.507 19.4387 415.142 21.0353C414.998 21.6188 414.731 22.165 414.359 22.6371C413.987 23.1092 413.519 23.4965 412.985 23.7728C411.803 24.4055 410.737 25.2331 409.831 26.2208C408.329 27.882 407.313 29.9241 406.894 32.1238C406.777 32.7207 406.537 33.2867 406.19 33.7862C405.843 34.2857 405.396 34.7077 404.878 35.0256C404.396 35.3252 403.856 35.5201 403.294 35.5977C402.732 35.6752 402.159 35.6336 401.614 35.4757C400.796 35.2455 400.055 34.7981 399.471 34.1811C398.886 33.564 398.479 32.8002 398.294 31.9707V29.2147C398.294 28.8967 398.167 28.5917 397.943 28.3669C397.718 28.142 397.413 28.0157 397.095 28.0157C396.777 28.0157 396.472 28.142 396.247 28.3669C396.022 28.5917 395.896 28.8967 395.896 29.2147V32.2253L395.921 32.3489C396.015 32.7904 396.147 33.2226 396.318 33.6402C393.33 33.2713 391.839 32.2696 391.828 32.2604L391.516 32.039H385.008C383.224 32.039 381.513 31.3302 380.251 30.0685C378.989 28.8068 378.28 27.0956 378.28 25.3113V6.42698C378.28 5.91621 378.078 5.42635 377.716 5.06518C377.355 4.70401 376.865 4.5011 376.355 4.5011H374.899C374.638 4.50426 374.385 4.41247 374.186 4.24281C373.988 4.07315 373.858 3.83716 373.82 3.57874C373.802 3.43105 373.816 3.28121 373.86 3.13912C373.904 2.99702 373.977 2.86588 374.076 2.75434C374.174 2.6428 374.295 2.55339 374.431 2.49199C374.566 2.43059 374.713 2.3986 374.862 2.39813Z" fill="#EBEFEB"/>
<path d="M397.525 25.2962H398.539C400.298 25.2935 402.001 24.6789 403.356 23.5577C404.711 22.4365 405.634 20.8786 405.966 19.1514C405.994 18.996 405.991 18.8366 405.958 18.6823C405.924 18.5279 405.861 18.3817 405.771 18.252C405.681 18.1222 405.566 18.0115 405.433 17.926C405.3 17.8406 405.152 17.7822 404.997 17.7541C404.841 17.726 404.682 17.7287 404.527 17.7622C404.373 17.7958 404.227 17.8593 404.097 17.9493C403.967 18.0394 403.857 18.1541 403.771 18.2869C403.686 18.4197 403.627 18.568 403.599 18.7234C403.37 19.8989 402.738 20.958 401.814 21.7195C400.89 22.481 399.729 22.8976 398.532 22.898H397.517C397.199 22.898 396.894 23.0244 396.669 23.2492C396.444 23.4741 396.318 23.7791 396.318 24.0971C396.318 24.4151 396.444 24.7201 396.669 24.945C396.894 25.1698 397.199 25.2962 397.517 25.2962H397.525Z" fill="#EBEFEB"/>
<path d="M414.195 35.7747V36.9019C414.195 37.2199 414.322 37.5249 414.547 37.7497C414.771 37.9746 415.076 38.1009 415.394 38.1009C415.712 38.1009 416.017 37.9746 416.242 37.7497C416.467 37.5249 416.593 37.2199 416.593 36.9019V35.7747C416.593 35.4567 416.467 35.1517 416.242 34.9269C416.017 34.702 415.712 34.5757 415.394 34.5757C415.076 34.5757 414.771 34.702 414.547 34.9269C414.322 35.1517 414.195 35.4567 414.195 35.7747Z" fill="#EBEFEB"/>
<path d="M515.446 0H452.946L468.571 15.625H499.821V46.875L515.446 62.5V0Z" fill="#C0CDC2"/>
<path d="M468.571 46.875H499.821L468.571 15.625L468.571 46.875Z" fill="#C0CDC2"/>
<path d="M572.946 62.5C555.687 62.5 541.696 48.5089 541.696 31.25H572.946V62.5Z" fill="#C0CDC2"/>
<path d="M572.946 0C572.946 17.2589 558.955 31.25 541.696 31.25L541.696 1.36598e-06L572.946 0Z" fill="#C0CDC2"/>
<path d="M510.446 4.09794e-06C527.705 2.58912e-06 541.696 13.9911 541.696 31.25L510.446 31.25L510.446 4.09794e-06Z" fill="#C0CDC2"/>
<path d="M510.446 62.5C510.446 45.2411 524.437 31.25 541.696 31.25L541.696 62.5L510.446 62.5Z" fill="#C0CDC2"/>
<path d="M568.71 43.0818L568.922 43.103V41.0879L569.304 30.7152L570.067 21.6576L574.628 15.9091L580.122 11.3061L584.576 9.01515L587.249 7.63636L594.652 7.80606L604.982 9.03636L608.588 8.95152L615.716 6.3L616.034 6.08788L616.267 4.9L619.131 1.37879L621.337 0L622.546 1.31515L623.522 2.07879L625.664 2.54545L634.361 4.64545L635.825 5.7697L637.055 6.95758L637.543 8.18788L638.391 9.50303L639.134 11.8576L639.622 15.9091L641.043 20.1515L641.828 23.9909L642.358 26.5364L644.84 27.1303L648.446 27.597L649.676 27.2364V27.8939L648.722 28.5515L645.413 28.7424L642.57 28.3182L643.122 33.3455L642.082 38.2455L638.858 42.2121L634.595 41.2576L633.067 38.4364L633.364 35.3394L635.061 33.0697L637.161 33.2606H638.667L638.582 35.0424L637.246 37.1212L636.779 36.9303L636.97 36.2727L636.207 34.9576L635.443 35.3394L636.016 37.8848L637.437 38.0546L638.964 35.997L638.858 32.2212L638.476 28.7424L637.946 27.0667L637.161 26.7485L635.825 26.0061V25.9848L635.167 26.0909L633.831 25.8152L631.37 23.7364L630.225 23.2697L628.995 27.4061L627.849 32.9848L627.276 36.3152L627.658 41.0242L628.485 48.4909L629.122 54.5788L630.628 57.7182L630.522 59.6061L627.531 59.9879H627.319L627.404 60.2424L627.085 62.6182L623.988 63L616.649 62.2576L616.84 59.0758L617.795 56.3394L618.261 48.5333L617.604 43.0606L617.519 40.4091L616.755 37.503L608.122 40.897L600.804 42.4879L592.679 41.6818L593.125 48.2364L593.825 54.6424L594.567 57.1667L595.204 58.6091L594.652 60.0515L594.546 60.0727L594.249 60.1152L591.916 60.497L584.895 60.2424L584.767 59.2242L585.913 55.2788L585.849 52.5849L584.64 47.8545L583.622 46.5818L581.352 52.7545L580.97 57.6545L581.84 59.7333L583.452 61.3455L583.07 62.6606L581.734 62.8515L580.398 62.8091L579.825 62.7879L578.319 62.7455L576.516 62.6818L575.37 62.6606L572.634 61.897L572.337 60.5818L573.482 58.4182L574.331 52.9455L574.628 48.8939L573.758 47.3879L572.719 44.5667L573.376 37.7788L573.101 34.003L571.298 27.7879L571.022 26.9394L570.067 38.5424L569.622 43.1879L569.961 43.2091L570.343 46.3485L569.728 49.1273L570.025 50.7606L570.598 51.4394L569.028 50.3788L568.137 48.3636L567.946 44.9061L568.71 43.0818Z" fill="#EBEFEB"/>
<path d="M675.926 62.5C675.926 59.1256 675.391 55.8761 674.402 52.8316V62.5H675.926Z" fill="#C0CDC2"/>
<path d="M671.353 46.2154C671.907 47.121 672.416 48.0569 672.877 49.0202L672.877 62.5H671.353V46.2154Z" fill="#C0CDC2"/>
<path d="M668.304 42.0474C668.836 42.6617 669.345 43.2969 669.829 43.9516V62.5H668.304L668.304 42.0474Z" fill="#C0CDC2"/>
<path d="M665.256 38.9823C665.779 39.4411 666.288 39.9172 666.78 40.4095V62.5H665.256L665.256 38.9823Z" fill="#C0CDC2"/>
<path d="M662.207 36.6266C662.726 36.9792 663.235 37.3472 663.731 37.7297V62.5H662.207V36.6266Z" fill="#C0CDC2"/>
<path d="M659.158 34.8009C659.675 35.0717 660.183 35.3565 660.682 35.6548L660.682 62.5H659.158V34.8009Z" fill="#C0CDC2"/>
<path d="M656.109 33.4076C656.624 33.6101 657.132 33.8259 657.634 34.0545V62.5H656.109V33.4076Z" fill="#C0CDC2"/>
<path d="M653.06 32.3875C653.574 32.5302 654.082 32.6857 654.585 32.8536L654.585 62.5H653.06L653.06 32.3875Z" fill="#C0CDC2"/>
<path d="M650.012 31.7037C650.524 31.7919 651.032 31.8925 651.536 32.0053L651.536 62.5H650.012L650.012 31.7037Z" fill="#C0CDC2"/>
<path d="M646.963 31.3324C647.474 31.3694 647.983 31.4188 648.487 31.4801L648.487 62.5H646.963L646.963 31.3324Z" fill="#C0CDC2"/>
<path d="M644.676 31.2592C645.183 31.247 644.932 31.247 645.438 31.2592L645.438 62.5H644.676L644.676 31.2592Z" fill="#C0CDC2"/>
<path fill-rule="evenodd" clip-rule="evenodd" d="M707.176 62.4999C707.176 27.9822 679.194 0 644.676 0V15.625C670.565 15.625 691.551 36.6116 691.551 62.4999L707.176 62.4999Z" fill="#C0CDC2"/>
<path d="M764.676 1.01069e-05H733.426L764.676 31.25V1.01069e-05Z" fill="#C0CDC2"/>
<path d="M764.676 31.25L733.426 31.25L764.676 62.5L764.676 31.25Z" fill="#C0CDC2"/>
<path d="M733.426 1.01069e-05L702.176 0L733.426 31.25L733.426 1.01069e-05Z" fill="#C0CDC2"/>
<path d="M733.426 31.25H702.176L733.426 62.5L733.426 31.25Z" fill="#C0CDC2"/>
</svg>
