<svg width="539" height="70" viewBox="0 0 539 70" fill="none" xmlns="http://www.w3.org/2000/svg">
<mask id="path-1-inside-1_2106_2841" fill="white">
<path d="M0 70H140V0H0V70Z"/>
</mask>
<path d="M0 0H-1V-1H0V0ZM0 70H-1V68.0556H0H1V70H0ZM0 60.2778H-1V56.3889H0H1V60.2778H0ZM0 48.6111H-1V44.7222H0H1V48.6111H0ZM0 36.9444H-1V33.0556H0H1V36.9444H0ZM0 25.2778H-1V21.3889H0H1V25.2778H0ZM0 13.6111H-1V9.72222H0H1V13.6111H0ZM0 1.94444H-1V0H0H1V1.94444H0ZM0 0V-1H1.94444V0V1H0V0ZM9.72222 0V-1H13.6111V0V1H9.72222V0ZM21.3889 0V-1H25.2778V0V1H21.3889V0ZM33.0556 0V-1H36.9444V0V1H33.0556V0ZM44.7222 0V-1H48.6111V0V1H44.7222V0ZM56.3889 0V-1H60.2778V0V1H56.3889V0ZM68.0556 0V-1H71.9444V0V1H68.0556V0ZM79.7222 0V-1H83.6111V0V1H79.7222V0ZM91.3889 0V-1H95.2778V0V1H91.3889V0ZM103.056 0V-1H106.944V0V1H103.056V0ZM114.722 0V-1H118.611V0V1H114.722V0ZM126.389 0V-1H130.278V0V1H126.389V0ZM138.056 0V-1H140V0V1H138.056V0ZM0 0H-2V-2H0V0ZM0 70H-2V68.0556H0H2V70H0ZM0 60.2778H-2V56.3889H0H2V60.2778H0ZM0 48.6111H-2V44.7222H0H2V48.6111H0ZM0 36.9444H-2V33.0556H0H2V36.9444H0ZM0 25.2778H-2V21.3889H0H2V25.2778H0ZM0 13.6111H-2V9.72222H0H2V13.6111H0ZM0 1.94444H-2V0H0H2V1.94444H0ZM0 0V-2H1.94444V0V2H0V0ZM9.72222 0V-2H13.6111V0V2H9.72222V0ZM21.3889 0V-2H25.2778V0V2H21.3889V0ZM33.0556 0V-2H36.9444V0V2H33.0556V0ZM44.7222 0V-2H48.6111V0V2H44.7222V0ZM56.3889 0V-2H60.2778V0V2H56.3889V0ZM68.0556 0V-2H71.9444V0V2H68.0556V0ZM79.7222 0V-2H83.6111V0V2H79.7222V0ZM91.3889 0V-2H95.2778V0V2H91.3889V0ZM103.056 0V-2H106.944V0V2H103.056V0ZM114.722 0V-2H118.611V0V2H114.722V0ZM126.389 0V-2H130.278V0V2H126.389V0ZM138.056 0V-2H140V0V2H138.056V0Z" fill="#355E3B" mask="url(#path-1-inside-1_2106_2841)"/>
<mask id="path-3-inside-2_2106_2841" fill="white">
<path d="M539 70H399V0H539V70Z"/>
</mask>
<path d="M539 0H540V-1H539V0ZM539 70H540V68.0556H539H538V70H539ZM539 60.2778H540V56.3889H539H538V60.2778H539ZM539 48.6111H540V44.7222H539H538V48.6111H539ZM539 36.9444H540V33.0556H539H538V36.9444H539ZM539 25.2778H540V21.3889H539H538V25.2778H539ZM539 13.6111H540V9.72222H539H538V13.6111H539ZM539 1.94444H540V0H539H538V1.94444H539ZM539 0V-1H537.056V0V1H539V0ZM529.278 0V-1H525.389V0V1H529.278V0ZM517.611 0V-1H513.722V0V1H517.611V0ZM505.944 0V-1H502.056V0V1H505.944V0ZM494.278 0V-1H490.389V0V1H494.278V0ZM482.611 0V-1H478.722V0V1H482.611V0ZM470.944 0V-1H467.056V0V1H470.944V0ZM459.278 0V-1H455.389V0V1H459.278V0ZM447.611 0V-1H443.722V0V1H447.611V0ZM435.944 0V-1H432.056V0V1H435.944V0ZM424.278 0V-1H420.389V0V1H424.278V0ZM412.611 0V-1H408.722V0V1H412.611V0ZM400.944 0V-1H399V0V1H400.944V0ZM539 0H541V-2H539V0ZM539 70H541V68.0556H539H537V70H539ZM539 60.2778H541V56.3889H539H537V60.2778H539ZM539 48.6111H541V44.7222H539H537V48.6111H539ZM539 36.9444H541V33.0556H539H537V36.9444H539ZM539 25.2778H541V21.3889H539H537V25.2778H539ZM539 13.6111H541V9.72222H539H537V13.6111H539ZM539 1.94444H541V0H539H537V1.94444H539ZM539 0V-2H537.056V0V2H539V0ZM529.278 0V-2H525.389V0V2H529.278V0ZM517.611 0V-2H513.722V0V2H517.611V0ZM505.944 0V-2H502.056V0V2H505.944V0ZM494.278 0V-2H490.389V0V2H494.278V0ZM482.611 0V-2H478.722V0V2H482.611V0ZM470.944 0V-2H467.056V0V2H470.944V0ZM459.278 0V-2H455.389V0V2H459.278V0ZM447.611 0V-2H443.722V0V2H447.611V0ZM435.944 0V-2H432.056V0V2H435.944V0ZM424.278 0V-2H420.389V0V2H424.278V0ZM412.611 0V-2H408.722V0V2H412.611V0ZM400.944 0V-2H399V0V2H400.944V0Z" fill="#355E3B" mask="url(#path-3-inside-2_2106_2841)"/>
</svg>
