<svg width="539" height="70" viewBox="0 0 539 70" fill="none" xmlns="http://www.w3.org/2000/svg">
<mask id="path-1-inside-1_2106_2844" fill="white">
<path d="M0 0H140V70H0V0Z"/>
</mask>
<path d="M0 70H-1V71H0V70ZM0 0H-1V1.94444H0H1V0H0ZM0 9.72222H-1V13.6111H0H1V9.72222H0ZM0 21.3889H-1V25.2778H0H1V21.3889H0ZM0 33.0556H-1V36.9444H0H1V33.0556H0ZM0 44.7222H-1V48.6111H0H1V44.7222H0ZM0 56.3889H-1V60.2778H0H1V56.3889H0ZM0 68.0556H-1V70H0H1V68.0556H0ZM0 70V71H1.94444V70V69H0V70ZM9.72222 70V71H13.6111V70V69H9.72222V70ZM21.3889 70V71H25.2778V70V69H21.3889V70ZM33.0556 70V71H36.9444V70V69H33.0556V70ZM44.7222 70V71H48.6111V70V69H44.7222V70ZM56.3889 70V71H60.2778V70V69H56.3889V70ZM68.0556 70V71H71.9444V70V69H68.0556V70ZM79.7222 70V71H83.6111V70V69H79.7222V70ZM91.3889 70V71H95.2778V70V69H91.3889V70ZM103.056 70V71H106.944V70V69H103.056V70ZM114.722 70V71H118.611V70V69H114.722V70ZM126.389 70V71H130.278V70V69H126.389V70ZM138.056 70V71H140V70V69H138.056V70ZM0 70H-2V72H0V70ZM0 0H-2V1.94444H0H2V0H0ZM0 9.72222H-2V13.6111H0H2V9.72222H0ZM0 21.3889H-2V25.2778H0H2V21.3889H0ZM0 33.0556H-2V36.9444H0H2V33.0556H0ZM0 44.7222H-2V48.6111H0H2V44.7222H0ZM0 56.3889H-2V60.2778H0H2V56.3889H0ZM0 68.0556H-2V70H0H2V68.0556H0ZM0 70V72H1.94444V70V68H0V70ZM9.72222 70V72H13.6111V70V68H9.72222V70ZM21.3889 70V72H25.2778V70V68H21.3889V70ZM33.0556 70V72H36.9444V70V68H33.0556V70ZM44.7222 70V72H48.6111V70V68H44.7222V70ZM56.3889 70V72H60.2778V70V68H56.3889V70ZM68.0556 70V72H71.9444V70V68H68.0556V70ZM79.7222 70V72H83.6111V70V68H79.7222V70ZM91.3889 70V72H95.2778V70V68H91.3889V70ZM103.056 70V72H106.944V70V68H103.056V70ZM114.722 70V72H118.611V70V68H114.722V70ZM126.389 70V72H130.278V70V68H126.389V70ZM138.056 70V72H140V70V68H138.056V70Z" fill="#355E3B" mask="url(#path-1-inside-1_2106_2844)"/>
<mask id="path-3-inside-2_2106_2844" fill="white">
<path d="M539 0H399V70H539V0Z"/>
</mask>
<path d="M539 70H540V71H539V70ZM539 0H540V1.94444H539H538V0H539ZM539 9.72222H540V13.6111H539H538V9.72222H539ZM539 21.3889H540V25.2778H539H538V21.3889H539ZM539 33.0556H540V36.9444H539H538V33.0556H539ZM539 44.7222H540V48.6111H539H538V44.7222H539ZM539 56.3889H540V60.2778H539H538V56.3889H539ZM539 68.0556H540V70H539H538V68.0556H539ZM539 70V71H537.056V70V69H539V70ZM529.278 70V71H525.389V70V69H529.278V70ZM517.611 70V71H513.722V70V69H517.611V70ZM505.944 70V71H502.056V70V69H505.944V70ZM494.278 70V71H490.389V70V69H494.278V70ZM482.611 70V71H478.722V70V69H482.611V70ZM470.944 70V71H467.056V70V69H470.944V70ZM459.278 70V71H455.389V70V69H459.278V70ZM447.611 70V71H443.722V70V69H447.611V70ZM435.944 70V71H432.056V70V69H435.944V70ZM424.278 70V71H420.389V70V69H424.278V70ZM412.611 70V71H408.722V70V69H412.611V70ZM400.944 70V71H399V70V69H400.944V70ZM539 70H541V72H539V70ZM539 0H541V1.94444H539H537V0H539ZM539 9.72222H541V13.6111H539H537V9.72222H539ZM539 21.3889H541V25.2778H539H537V21.3889H539ZM539 33.0556H541V36.9444H539H537V33.0556H539ZM539 44.7222H541V48.6111H539H537V44.7222H539ZM539 56.3889H541V60.2778H539H537V56.3889H539ZM539 68.0556H541V70H539H537V68.0556H539ZM539 70V72H537.056V70V68H539V70ZM529.278 70V72H525.389V70V68H529.278V70ZM517.611 70V72H513.722V70V68H517.611V70ZM505.944 70V72H502.056V70V68H505.944V70ZM494.278 70V72H490.389V70V68H494.278V70ZM482.611 70V72H478.722V70V68H482.611V70ZM470.944 70V72H467.056V70V68H470.944V70ZM459.278 70V72H455.389V70V68H459.278V70ZM447.611 70V72H443.722V70V68H447.611V70ZM435.944 70V72H432.056V70V68H435.944V70ZM424.278 70V72H420.389V70V68H424.278V70ZM412.611 70V72H408.722V70V68H412.611V70ZM400.944 70V72H399V70V68H400.944V70Z" fill="#355E3B" mask="url(#path-3-inside-2_2106_2844)"/>
</svg>
