<svg width="390" height="135" viewBox="0 0 390 135" fill="none" xmlns="http://www.w3.org/2000/svg">
<path d="M2.88672 -3.26633e-05L5.77347 2.88672L2.88672 5.77347L-3.26633e-05 2.88672L2.88672 -3.26633e-05ZM2.88671 134.773L-3.83021e-05 131.887L2.88671 129L5.77346 131.887L2.88671 134.773ZM2.88672 2.88672L3.38672 2.88672L3.38672 5.03672L2.88672 5.03672L2.38672 5.03672L2.38672 2.88672L2.88672 2.88672ZM2.88672 13.6367L3.38672 13.6367L3.38672 17.9367L2.88672 17.9367L2.38672 17.9367L2.38672 13.6367L2.88672 13.6367ZM2.88672 26.5367L3.38672 26.5367L3.38672 30.8367L2.88672 30.8367L2.38672 30.8367L2.38672 26.5367L2.88672 26.5367ZM2.88672 39.4367L3.38672 39.4367L3.38672 43.7367L2.88672 43.7367L2.38672 43.7367L2.38672 39.4367L2.88672 39.4367ZM2.88672 52.3367L3.38672 52.3367L3.38672 56.6367L2.88672 56.6367L2.38672 56.6367L2.38672 52.3367L2.88672 52.3367ZM2.88672 65.2367L3.38672 65.2367L3.38672 67.3867L2.88672 67.3867L2.38672 67.3867L2.38672 65.2367L2.88672 65.2367ZM2.88672 67.3867L3.38672 67.3867L3.38672 69.5367L2.88672 69.5367L2.38672 69.5367L2.38672 67.3867L2.88672 67.3867ZM2.88672 78.1367L3.38672 78.1367L3.38672 82.4367L2.88672 82.4367L2.38672 82.4367L2.38672 78.1367L2.88672 78.1367ZM2.88671 91.0367L3.38671 91.0367L3.38671 95.3367L2.88671 95.3367L2.38671 95.3367L2.38671 91.0367L2.88671 91.0367ZM2.88671 103.937L3.38671 103.937L3.38671 108.237L2.88671 108.237L2.38671 108.237L2.38671 103.937L2.88671 103.937ZM2.88671 116.837L3.38671 116.837L3.38671 121.137L2.88671 121.137L2.38671 121.137L2.38671 116.837L2.88671 116.837ZM2.88671 129.737L3.38671 129.737L3.38671 131.887L2.88671 131.887L2.38671 131.887L2.38671 129.737L2.88671 129.737Z" fill="#355E3B"/>
<path d="M-3.25959e-05 131.887L2.88672 134.773L5.77347 131.887L2.88672 129L-3.25959e-05 131.887ZM389.773 131.887L386.887 129L384 131.887L386.887 134.773L389.773 131.887ZM2.88672 131.887V132.387H4.88672V131.887V131.387H2.88672V131.887ZM12.8867 131.887V132.387H16.8867V131.887V131.387H12.8867V131.887ZM24.8867 131.887V132.387H28.8867V131.887V131.387H24.8867V131.887ZM36.8867 131.887V132.387H40.8867V131.887V131.387H36.8867V131.887ZM48.8867 131.887V132.387H52.8867V131.887V131.387H48.8867V131.887ZM60.8867 131.887V132.387H64.8867V131.887V131.387H60.8867V131.887ZM72.8867 131.887V132.387H76.8867V131.887V131.387H72.8867V131.887ZM84.8867 131.887V132.387H88.8867V131.887V131.387H84.8867V131.887ZM96.8867 131.887V132.387H100.887V131.887V131.387H96.8867V131.887ZM108.887 131.887V132.387H112.887V131.887V131.387H108.887V131.887ZM120.887 131.887V132.387H124.887V131.887V131.387H120.887V131.887ZM132.887 131.887V132.387H136.887V131.887V131.387H132.887V131.887ZM144.887 131.887V132.387H148.887V131.887V131.387H144.887V131.887ZM156.887 131.887V132.387H160.887V131.887V131.387H156.887V131.887ZM168.887 131.887V132.387H172.887V131.887V131.387H168.887V131.887ZM180.887 131.887V132.387H184.887V131.887V131.387H180.887V131.887ZM192.887 131.887V132.387H194.887V131.887V131.387H192.887V131.887ZM194.887 131.887V132.387H196.887V131.887V131.387H194.887V131.887ZM204.887 131.887V132.387H208.887V131.887V131.387H204.887V131.887ZM216.887 131.887V132.387H220.887V131.887V131.387H216.887V131.887ZM228.887 131.887V132.387H232.887V131.887V131.387H228.887V131.887ZM240.887 131.887V132.387H244.887V131.887V131.387H240.887V131.887ZM252.887 131.887V132.387H256.887V131.887V131.387H252.887V131.887ZM264.887 131.887V132.387H268.887V131.887V131.387H264.887V131.887ZM276.887 131.887V132.387H280.887V131.887V131.387H276.887V131.887ZM288.887 131.887V132.387H290.887V131.887V131.387H288.887V131.887ZM290.887 131.887V132.387H292.887V131.887V131.387H290.887V131.887ZM300.887 131.887V132.387H304.887V131.887V131.387H300.887V131.887ZM312.887 131.887V132.387H316.887V131.887V131.387H312.887V131.887ZM324.887 131.887V132.387H328.887V131.887V131.387H324.887V131.887ZM336.887 131.887V132.387H340.887V131.887V131.387H336.887V131.887ZM348.887 131.887V132.387H352.887V131.887V131.387H348.887V131.887ZM360.887 131.887V132.387H364.887V131.887V131.387H360.887V131.887ZM372.887 131.887V132.387H376.887V131.887V131.387H372.887V131.887ZM384.887 131.887V132.387H386.887V131.887V131.387H384.887V131.887Z" fill="#355E3B"/>
</svg>
